# xmcd CD database file
#
# Track frame offsets:
#	150
#	14051
#	25670
#	39198
#	50148
#	63783
#	74278
#	90654
#	104050
#	123001
#	136349
#	152074
#
# Disc length: 2280 seconds
#
# Revision: 5
# Processed by: cddbd v1.5.2PL0 Copyright (c) Steve Scherf et al.
# Submitted via: CDex 1.51
#
DISCID=9c08e60c
DTITLE=Ozark Alliance - Friends and Neighbors
DYEAR=2006
DGENRE=Country
TTITLE0=Old Dan's Records
TTITLE1=I Wish I Had a Nickel
TTITLE2=When Jesus Comes Down
TTITLE3=Scratch Where It Itches
TTITLE4=Arkansas
TTITLE5=Roanoke
TTITLE6=When the Angels Sing
TTITLE7=There Goes the Neighborhood
TTITLE8=Family Bible
TTITLE9=Give Me Your Hand
TTITLE10=Grandpa's Tracks
TTITLE11=Homecoming
EXTD=YEAR: 2006
EXTT0=
EXTT1=
EXTT2=
EXTT3=
EXTT4=
EXTT5=
EXTT6=
EXTT7=
EXTT8=
EXTT9=
EXTT10=
EXTT11=
PLAYORDER=
